<svg width="24" height="24" viewBox="0 0 24 24" fill="none" xmlns="http://www.w3.org/2000/svg">
<g clip-path="url(#clip0_54_3)">
<path d="M12 0.296948C9.14945 0.295599 6.39154 1.30902 4.2201 3.15572C2.04866 5.00243 0.605525 7.56181 0.149111 10.3756C-0.307303 13.1893 0.252817 16.0736 1.72917 18.512C3.20552 20.9504 5.50168 22.7837 8.20647 23.6834C8.80647 23.7944 9.02697 23.4224 9.02697 23.1059C9.02697 22.8194 9.01497 21.8744 9.01047 20.8724C5.67147 21.5984 4.96797 19.4564 4.96797 19.4564C4.42197 18.0689 3.63597 17.6999 3.63597 17.6999C2.54697 16.9544 3.71847 16.9709 3.71847 16.9709C4.92297 17.0549 5.55747 18.2069 5.55747 18.2069C6.62847 20.0414 8.36547 19.5104 9.04947 19.2044C9.15747 18.4289 9.46797 17.8994 9.81147 17.5994C7.14597 17.2964 4.34397 16.2674 4.34397 11.6684C4.34397 10.3589 4.81347 9.28795 5.57997 8.44795C5.45547 8.14495 5.04447 6.92545 5.69547 5.27245C5.69547 5.27245 6.70347 4.94995 8.99697 6.50245C9.97581 6.23618 10.9856 6.10051 12 6.09895C13.02 6.10345 14.0475 6.23695 15.006 6.50245C17.2965 4.94995 18.303 5.27245 18.303 5.27245C18.9555 6.92545 18.546 8.14645 18.4215 8.44795C19.191 9.28795 19.656 10.3589 19.656 11.6684C19.656 16.2779 16.848 17.2919 14.1765 17.5889C14.607 17.9609 14.991 18.6914 14.991 19.8104C14.991 21.4154 14.9775 22.7084 14.9775 23.1029C14.9775 23.4224 15.1935 23.7959 15.8025 23.6789C18.5068 22.7782 20.8021 20.9442 22.2775 18.5053C23.7529 16.0665 24.312 13.1822 23.8547 10.3687C23.3974 7.55528 21.9536 4.99648 19.7817 3.15049C17.6099 1.30451 14.8518 0.291887 12.0015 0.293948L12 0.296948Z" fill="url(#paint0_linear_54_3)"/>
</g>
<defs>
<linearGradient id="paint0_linear_54_3" x1="-0.00573731" y1="1.66973" x2="23.7994" y2="25.9371" gradientUnits="userSpaceOnUse">
<stop stop-color="#A965F8"/>
<stop offset="0.665225" stop-color="#2565E1"/>
<stop offset="1" stop-color="#D225E1"/>
</linearGradient>
<clipPath id="clip0_54_3">
<rect width="24" height="24" fill="white"/>
</clipPath>
</defs>
</svg>
